<svg xmlns="http://www.w3.org/2000/svg" xmlns:xlink="http://www.w3.org/1999/xlink" xml:space="preserve" width="86.469mm" height="57.9529mm" style="shape-rendering:geometricPrecision; text-rendering:geometricPrecision; image-rendering:optimizeQuality; fill-rule:evenodd; clip-rule:evenodd" viewBox="0 0 8647 5795">
 <defs>
  <style type="text/css">
   <![CDATA[
    .fil1 {fill:#F13E4B}
    .fil0 {fill:#434242;fill-rule:nonzero}
   ]]>
  </style>
 </defs>
 <g id="Warstwa_x0020_1">
  <metadata id="CorelCorpID_0Corel-Layer"></metadata>
  <g id="_2735477739584">
   <g>
    <polygon class="fil0" points="2089,3891 2089,3545 1856,3545 1856,4441 2089,4441 2089,4073 2426,4073 2426,4441 2658,4441 2658,3545 2426,3545 2426,3891 "></polygon>
    <polygon id="1" class="fil0" points="3356,3742 3356,3545 2846,3545 2846,4441 3356,4441 3356,4243 3079,4243 3079,4089 3341,4089 3341,3891 3079,3891 3079,3742 "></polygon>
    <path id="2" class="fil0" d="M4069 4285l58 156 248 0 -337 -896 -254 0 -344 896 246 0 62 -156 321 0zm-63 -177l-194 0 98 -286 96 286z"></path>
    <path id="3" class="fil0" d="M4941 4074c53,-13 83,-27 114,-54 51,-44 82,-119 82,-198 0,-74 -28,-147 -77,-198 -52,-55 -119,-79 -220,-79l-361 0 0 896 232 0 0 -344 222 344 290 0 -282 -367zm-230 -128l0 -223 43 0c44,0 78,10 99,25 26,18 45,55 45,87 0,32 -19,70 -45,87 -21,16 -55,24 -99,24l-43 0z"></path>
    <polygon id="4" class="fil0" points="5658,3742 5851,3742 5851,3545 5236,3545 5236,3742 5426,3742 5426,4441 5658,4441 "></polygon>
    <polygon id="5" class="fil0" points="6222,4011 6222,4441 6455,4441 6455,4011 6790,3545 6508,3545 6346,3789 6177,3545 5898,3545 "></polygon>
    <polygon class="fil0" points="513,5065 513,4867 0,4867 0,5763 232,5763 232,5411 488,5411 488,5214 232,5214 232,5065 "></polygon>
    <path id="1" class="fil0" d="M1104 4840c-125,0 -243,41 -328,113 -106,90 -167,222 -167,356 0,279 209,486 491,486 132,0 242,-37 332,-113 107,-90 168,-223 168,-365 0,-124 -46,-239 -129,-326 -95,-101 -218,-151 -367,-151zm0 226c140,0 253,113 253,251 0,140 -113,253 -253,253 -141,0 -252,-113 -252,-256 0,-135 114,-248 252,-248z"></path>
    <path id="2" class="fil0" d="M1980 4867l-232 0 0 517c0,132 17,206 64,268 62,83 183,134 320,134 130,0 235,-43 309,-126 64,-73 87,-144 87,-276l0 -517 -232 0 0 485c0,94 -4,121 -24,156 -25,44 -77,72 -136,72 -57,0 -105,-25 -130,-68 -23,-38 -26,-58 -26,-160l0 -485z"></path>
    <polygon id="3" class="fil0" points="2716,5763 2949,5763 2949,5215 3377,5763 3609,5763 3609,4867 3377,4867 3377,5415 2949,4867 2716,4867 "></polygon>
    <path id="4" class="fil0" d="M3798 5763l343 0c237,0 441,-207 441,-449 0,-240 -204,-447 -441,-447l-343 0 0 896zm232 -197l0 -501 54 0c87,0 143,22 190,75 42,45 65,109 65,174 0,68 -23,131 -65,176 -47,53 -103,76 -190,76l-54 0z"></path>
    <path id="5" class="fil0" d="M5239 5607l58 156 248 0 -337 -896 -254 0 -344 896 246 0 62 -156 321 0zm-63 -177l-194 0 98 -286 96 286z"></path>
    <polygon id="6" class="fil0" points="5936,5065 6130,5065 6130,4867 5514,4867 5514,5065 5704,5065 5704,5763 5936,5763 "></polygon>
    <polygon id="7" class="fil0" points="6467,4867 6234,4867 6234,5763 6467,5763 "></polygon>
    <path id="8" class="fil0" d="M7110 4840c-125,0 -243,41 -328,113 -106,90 -168,222 -168,356 0,279 210,486 492,486 132,0 242,-37 332,-113 107,-90 168,-223 168,-365 0,-124 -46,-239 -129,-326 -95,-101 -218,-151 -367,-151zm0 226c140,0 253,113 253,251 0,140 -113,253 -253,253 -141,0 -252,-113 -252,-256 0,-135 114,-248 252,-248z"></path>
    <polygon id="9" class="fil0" points="7754,5763 7986,5763 7986,5215 8415,5763 8647,5763 8647,4867 8415,4867 8415,5415 7986,4867 7754,4867 "></polygon>
   </g>
   <path class="fil1" d="M5385 114c-113,-74 -247,-114 -394,-114 -210,0 -438,87 -661,250 -181,-135 -364,-218 -540,-245l-11 10c-45,38 -161,111 -226,89 -66,-23 -207,84 -230,85 -8,0 0,-81 46,-87 -16,2 95,-57 137,-90 -72,15 -140,41 -202,77 10,5 19,9 -8,31 -22,16 -37,106 -58,108 -61,35 -74,-47 -133,67 -6,11 -26,19 -49,27 -67,100 -116,220 -142,356 -44,227 -20,482 84,735l54 8c22,10 56,83 74,104 46,52 105,66 164,106 34,23 106,91 111,130 4,-28 184,41 219,56 81,38 157,94 100,194 -18,33 108,124 87,171l-40 33c-19,28 -9,58 10,82 151,97 322,186 516,263 12,5 25,8 37,8 13,0 25,-3 37,-8 903,-369 1323,-975 1387,-1517 -54,3 -118,10 -122,-20 -5,-32 -45,5 -70,-21 -12,-12 -36,-79 -56,-78 -42,2 21,135 43,156 30,-11 120,-25 122,32 2,108 -152,177 -232,214 -118,56 -59,-77 -107,-145 -26,-36 -9,-91 -36,-120 -13,-13 -58,-113 -54,-124l-8 20c-14,5 -26,-43 -26,-51 -11,36 30,111 40,145 18,59 14,136 42,189 15,28 70,142 92,147l126 -19c73,42 -302,332 -341,371 -32,32 -24,138 -41,183 -19,51 -66,55 -114,72 -51,18 -60,80 -102,91 -74,20 -157,131 -246,104 -26,-9 -152,1 -153,-46 -2,-35 -10,-63 -17,-99 -6,-34 17,-61 6,-94 -8,-22 -39,-78 -36,-101 5,-19 37,-71 60,-75 32,-6 22,-54 26,-79 7,-45 -8,-88 -33,-123 -36,-50 -2,-72 24,-120 8,-25 3,-62 -33,-62 -75,-1 -32,-68 -82,-80 -37,-9 -73,5 -110,5 -45,0 -82,-36 -122,-54 -163,-73 -159,-285 -72,-412 12,-22 6,-70 20,-86 32,-36 86,-72 129,-94 25,-12 48,0 75,-7 42,-12 56,-57 99,-74 60,-24 126,-3 192,8 35,5 172,17 184,48 -1,5 1,80 -23,69 51,18 99,129 155,124 29,-3 44,-84 85,-30 24,32 163,86 201,70 22,-9 62,-104 44,-121 10,18 -79,-8 -86,-14 -13,-9 -33,6 -53,-12 12,10 -65,-67 -1,-89 -27,9 -41,-18 -70,-7 -20,8 1,24 -25,28 -43,8 -45,-83 -56,-96 -11,-14 -97,-124 -82,-65l66 125c-6,1 -14,-43 -23,-15 12,-14 -19,71 -25,38 -4,-13 16,-13 11,-32 3,-10 -22,-29 -25,-38 -9,-23 -37,-77 -56,-93 -5,-5 -96,-18 -104,-18 -12,10 -23,20 -33,31 -20,2 -39,5 -59,11l-32 37c-10,4 -103,7 -104,8 6,-8 -53,-39 -43,-56 11,-19 51,-75 52,-99 2,-26 120,74 148,14 12,-26 24,-57 -18,-75 8,3 93,-5 110,-15 24,-14 75,-35 104,-26 34,10 42,-42 65,-62 15,11 -22,43 -8,65 3,-13 52,23 58,22 15,-3 84,22 83,-14 -1,-37 14,-22 32,-24 -3,0 46,-46 60,-41 -9,-15 -52,-1 -66,-7 -36,-14 -2,-69 18,-83 15,-10 -20,-40 -29,-13 -13,39 -61,64 -69,120 -11,84 -83,-47 -93,-44 -41,10 -54,-45 -28,-67 27,-23 69,-9 97,-34 19,-17 41,-38 66,-48 81,-35 86,14 149,40 61,25 16,21 0,43 -15,20 25,42 46,27 12,-8 40,-31 54,-49 12,-15 55,-7 71,-15zm-737 96l11 -8 10 1c6,-3 14,-11 21,-7 5,3 14,17 8,22 -6,5 -6,-8 -13,9 -8,20 -29,13 -46,15 -12,1 -20,-8 -7,-16l15 -9 1 -7 0 0zm44 46c7,-4 17,4 21,-6 5,-9 16,-18 12,-40 -1,-6 17,-6 11,-15l-14 0c0,0 43,-74 57,-30l-15 9c11,21 4,62 1,90 13,13 36,21 5,27 14,2 -86,15 -93,-5 -5,-13 43,-5 43,-10 0,-1 -37,-14 -28,-20l0 0z"></path>
  </g>
 </g>
</svg>